<svg width="47" height="67" viewBox="0 0 47 67" fill="none" xmlns="http://www.w3.org/2000/svg">
<path d="M46.6667 23.3333C46.6667 20.2692 46.0631 17.235 44.8905 14.4041C43.7179 11.5731 41.9992 9.00087 39.8325 6.83417C37.6658 4.66747 35.0935 2.94875 32.2626 1.77614C29.4317 0.603534 26.3975 0 23.3333 0C20.2692 0 17.235 0.603534 14.4041 1.77614C11.5731 2.94875 9.00088 4.66747 6.83418 6.83417C4.66747 9.00087 2.94875 11.5731 1.77614 14.4041C0.603534 17.235 -4.56598e-08 20.2692 0 23.3333C0 27.9567 1.36333 32.2567 3.68333 35.8833H3.65667L23.3333 66.6667L43.01 35.8833H42.9867C45.3896 32.1386 46.6668 27.7827 46.6667 23.3333ZM23.3333 33.3333C20.6812 33.3333 18.1376 32.2798 16.2623 30.4044C14.3869 28.529 13.3333 25.9855 13.3333 23.3333C13.3333 20.6812 14.3869 18.1376 16.2623 16.2623C18.1376 14.3869 20.6812 13.3333 23.3333 13.3333C25.9855 13.3333 28.529 14.3869 30.4044 16.2623C32.2798 18.1376 33.3333 20.6812 33.3333 23.3333C33.3333 25.9855 32.2798 28.529 30.4044 30.4044C28.529 32.2798 25.9855 33.3333 23.3333 33.3333Z" fill="#141414"/>
<circle cx="23.5" cy="23.5" r="17.5" fill="#141414"/>
<path d="M23 15.6667C24.2377 15.6667 25.4247 16.1583 26.2999 17.0335C27.175 17.9087 27.6667 19.0956 27.6667 20.3333C27.6667 21.571 27.175 22.758 26.2999 23.6332C25.4247 24.5083 24.2377 25 23 25C21.7623 25 20.5754 24.5083 19.7002 23.6332C18.825 22.758 18.3334 21.571 18.3334 20.3333C18.3334 19.0956 18.825 17.9087 19.7002 17.0335C20.5754 16.1583 21.7623 15.6667 23 15.6667M23 27.3333C28.1567 27.3333 32.3334 29.4217 32.3334 32V34.3333H13.6667V32C13.6667 29.4217 17.8434 27.3333 23 27.3333Z" fill="#F1F6FA"/>
</svg>
