<svg width="25" height="25" viewBox="0 0 25 25" fill="none" xmlns="http://www.w3.org/2000/svg">
<circle opacity="0.25" cx="12.5" cy="12.5" r="12" fill="#EEEEEE" stroke="#141414"/>
<g clip-path="url(#clip0_23_158)">
<path d="M12.4999 7.73796C13.8095 7.73796 14.8809 8.80939 14.8809 10.1189C14.8809 11.3689 13.6309 13.3927 12.4999 14.8213C11.369 13.3332 10.119 11.3689 10.119 10.1189C10.119 8.80939 11.1904 7.73796 12.4999 7.73796ZM12.4999 6.54749C10.5357 6.54749 8.92851 8.15463 8.92851 10.1189C8.92851 12.7975 12.4999 16.6665 12.4999 16.6665C12.4999 16.6665 16.0714 12.738 16.0714 10.1189C16.0714 8.15463 14.4642 6.54749 12.4999 6.54749ZM12.4999 8.92844C11.8452 8.92844 11.3095 9.46415 11.3095 10.1189C11.3095 10.7737 11.8452 11.3094 12.4999 11.3094C13.1547 11.3094 13.6904 10.7737 13.6904 10.1189C13.6904 9.46415 13.1547 8.92844 12.4999 8.92844ZM17.2618 16.6665C17.2618 17.9761 15.119 19.0475 12.4999 19.0475C9.88089 19.0475 7.73804 17.9761 7.73804 16.6665C7.73804 15.8927 8.45232 15.238 9.58327 14.7618L9.94042 15.2975C9.34518 15.5951 8.92851 15.9522 8.92851 16.3689C8.92851 17.2022 10.5357 17.857 12.4999 17.857C14.4642 17.857 16.0714 17.2022 16.0714 16.3689C16.0714 15.9522 15.6547 15.5951 14.9999 15.2975L15.3571 14.7618C16.5476 15.238 17.2618 15.8927 17.2618 16.6665Z" fill="#141414"/>
</g>
<defs>
<clipPath id="clip0_23_158">
<rect width="14.2857" height="14.2857" fill="white" transform="translate(5.35706 5.35699)"/>
</clipPath>
</defs>
</svg>
