<svg width="25" height="25" viewBox="0 0 25 25" fill="none" xmlns="http://www.w3.org/2000/svg">
<circle opacity="0.25" cx="12.5" cy="12.5" r="12" fill="#EEEEEE" stroke="#141414"/>
<path d="M15.1785 18.0802C10.6249 18.0802 6.91956 14.3748 6.91956 9.82127C6.91978 9.00688 7.21682 8.22049 7.75506 7.60933C8.2933 6.99816 9.03583 6.60411 9.84366 6.50096C10.0837 6.47094 10.3269 6.5201 10.5364 6.64097C10.7459 6.76184 10.9102 6.9478 11.0044 7.1706L12.126 9.78221C12.2001 9.95155 12.2307 10.1367 12.2151 10.3209C12.1995 10.505 12.1382 10.6824 12.0367 10.8369L11.1774 12.1427C11.5581 12.8622 12.1475 13.4496 12.8682 13.828L14.1573 12.9686C14.3123 12.8662 14.4904 12.8039 14.6754 12.7874C14.8605 12.7708 15.0468 12.8005 15.2175 12.8737L17.8292 13.9954C18.0519 14.0895 18.2379 14.2538 18.3588 14.4633C18.4796 14.6728 18.5288 14.9161 18.4988 15.1561C18.3956 15.9639 18.0016 16.7065 17.3904 17.2447C16.7793 17.7829 15.9929 18.08 15.1785 18.0802ZM9.84366 7.85698C9.39477 7.95393 8.99264 8.20176 8.70427 8.55918C8.4159 8.91659 8.2587 9.36202 8.25884 9.82127C8.26032 11.656 8.98983 13.4152 10.2872 14.7126C11.5846 16.0099 13.3437 16.7394 15.1785 16.7409C15.6377 16.7411 16.0832 16.5838 16.4406 16.2955C16.798 16.0071 17.0458 15.605 17.1428 15.1561L14.799 14.1516L13.5044 15.0166C13.3434 15.1231 13.1576 15.1863 12.965 15.2C12.7724 15.2137 12.5795 15.1774 12.405 15.0947C11.3219 14.5701 10.4456 13.6978 9.91621 12.617C9.83107 12.4435 9.79296 12.2506 9.80569 12.0577C9.81842 11.8648 9.88154 11.6786 9.98875 11.5177L10.8481 10.2007L9.84366 7.85698Z" fill="#141414"/>
</svg>
