<svg width="25" height="25" viewBox="0 0 25 25" fill="none" xmlns="http://www.w3.org/2000/svg">
<circle opacity="0.25" cx="12.5" cy="12.5" r="12" fill="#EEEEEE" stroke="#141414"/>
<path d="M12.4939 6.54745C9.2082 6.54745 6.54749 9.21412 6.54749 12.4998C6.54749 15.7856 9.2082 18.4522 12.4939 18.4522C15.7856 18.4522 18.4522 15.7856 18.4522 12.4998C18.4522 9.21412 15.7856 6.54745 12.4939 6.54745ZM12.4999 17.2617C9.86891 17.2617 7.73796 15.1308 7.73796 12.4998C7.73796 9.86888 9.86891 7.73793 12.4999 7.73793C15.1308 7.73793 17.2618 9.86888 17.2618 12.4998C17.2618 15.1308 15.1308 17.2617 12.4999 17.2617Z" fill="#141414"/>
<path d="M12.7975 9.52362H11.9047V13.095L15.0297 14.97L15.4761 14.2379L12.7975 12.6486V9.52362Z" fill="#141414"/>
</svg>
